<mxfile host="app.diagrams.net" modified="2024-05-11T19:13:27.809Z" agent="Mozilla/5.0 (Windows NT 10.0; Win64; x64) AppleWebKit/537.36 (KHTML, like Gecko) Chrome/124.0.0.0 Safari/537.36" etag="lN5tTqYvIujBNaYuDIHY" version="24.2.5" type="device">
  <diagram name="Страница — 1" id="OnGRI13Ld-8jU3vb_ZSC">
    <mxGraphModel dx="731" dy="371" grid="0" gridSize="10" guides="1" tooltips="1" connect="1" arrows="1" fold="1" page="1" pageScale="1" pageWidth="1169" pageHeight="827" background="#ffffff" math="0" shadow="0">
      <root>
        <mxCell id="0" />
        <mxCell id="1" parent="0" />
        <mxCell id="1GgPMbV7aMCzvzCdthBu-1" value="&lt;span style=&quot;color: rgb(0, 0, 0); font-family: Helvetica; font-size: 12px; font-style: normal; font-variant-ligatures: normal; font-variant-caps: normal; font-weight: 400; letter-spacing: normal; orphans: 2; text-align: center; text-indent: 0px; text-transform: none; widows: 2; word-spacing: 0px; -webkit-text-stroke-width: 0px; white-space: normal; background-color: rgb(251, 251, 251); text-decoration-thickness: initial; text-decoration-style: initial; text-decoration-color: initial; display: inline !important; float: none;&quot;&gt;Счетчик 2&lt;/span&gt;" style="rounded=0;whiteSpace=wrap;html=1;" vertex="1" parent="1">
          <mxGeometry x="270" y="284" width="120" height="60" as="geometry" />
        </mxCell>
        <mxCell id="1GgPMbV7aMCzvzCdthBu-2" value="Счетчик 1" style="rounded=0;whiteSpace=wrap;html=1;" vertex="1" parent="1">
          <mxGeometry x="110" y="284" width="120" height="60" as="geometry" />
        </mxCell>
        <mxCell id="1GgPMbV7aMCzvzCdthBu-3" value="&lt;span style=&quot;font-size:14.0pt;line-height:107%;&lt;br/&gt;font-family:&amp;quot;Times New Roman&amp;quot;,serif;mso-fareast-font-family:Calibri;mso-fareast-theme-font:&lt;br/&gt;minor-latin;mso-ansi-language:RU;mso-fareast-language:EN-US;mso-bidi-language:&lt;br/&gt;AR-SA&quot;&gt;Arduino&lt;/span&gt;" style="rounded=0;whiteSpace=wrap;html=1;" vertex="1" parent="1">
          <mxGeometry x="126" y="394" width="604" height="80" as="geometry" />
        </mxCell>
        <mxCell id="1GgPMbV7aMCzvzCdthBu-4" value="&lt;span style=&quot;color: rgb(0, 0, 0); font-family: Helvetica; font-size: 12px; font-style: normal; font-variant-ligatures: normal; font-variant-caps: normal; font-weight: 400; letter-spacing: normal; orphans: 2; text-align: center; text-indent: 0px; text-transform: none; widows: 2; word-spacing: 0px; -webkit-text-stroke-width: 0px; white-space: normal; background-color: rgb(251, 251, 251); text-decoration-thickness: initial; text-decoration-style: initial; text-decoration-color: initial; display: inline !important; float: none;&quot;&gt;Счетчик 3&lt;/span&gt;" style="rounded=0;whiteSpace=wrap;html=1;" vertex="1" parent="1">
          <mxGeometry x="426" y="284" width="120" height="60" as="geometry" />
        </mxCell>
        <mxCell id="1GgPMbV7aMCzvzCdthBu-5" value="&lt;span style=&quot;color: rgb(0, 0, 0); font-family: Helvetica; font-size: 12px; font-style: normal; font-variant-ligatures: normal; font-variant-caps: normal; font-weight: 400; letter-spacing: normal; orphans: 2; text-align: center; text-indent: 0px; text-transform: none; widows: 2; word-spacing: 0px; -webkit-text-stroke-width: 0px; white-space: normal; background-color: rgb(251, 251, 251); text-decoration-thickness: initial; text-decoration-style: initial; text-decoration-color: initial; display: inline !important; float: none;&quot;&gt;Счетчик 4&lt;/span&gt;&lt;div&gt;&lt;br&gt;&lt;/div&gt;" style="rounded=0;whiteSpace=wrap;html=1;" vertex="1" parent="1">
          <mxGeometry x="580" y="284" width="120" height="60" as="geometry" />
        </mxCell>
        <mxCell id="1GgPMbV7aMCzvzCdthBu-6" value="Электрический счетчик" style="rounded=0;whiteSpace=wrap;html=1;" vertex="1" parent="1">
          <mxGeometry x="230" y="524" width="120" height="60" as="geometry" />
        </mxCell>
        <mxCell id="1GgPMbV7aMCzvzCdthBu-7" value="&lt;div&gt;Газовый счетчик&lt;/div&gt;" style="rounded=0;whiteSpace=wrap;html=1;" vertex="1" parent="1">
          <mxGeometry x="490" y="524" width="120" height="60" as="geometry" />
        </mxCell>
        <mxCell id="1GgPMbV7aMCzvzCdthBu-8" value="" style="endArrow=none;dashed=1;html=1;rounded=0;entryX=0.27;entryY=0.991;entryDx=0;entryDy=0;entryPerimeter=0;" edge="1" parent="1" source="1GgPMbV7aMCzvzCdthBu-6" target="1GgPMbV7aMCzvzCdthBu-3">
          <mxGeometry width="50" height="50" relative="1" as="geometry">
            <mxPoint x="416" y="594" as="sourcePoint" />
            <mxPoint x="466" y="544" as="targetPoint" />
          </mxGeometry>
        </mxCell>
        <mxCell id="1GgPMbV7aMCzvzCdthBu-9" value="" style="endArrow=none;dashed=1;html=1;rounded=0;entryX=0.5;entryY=1;entryDx=0;entryDy=0;exitX=0.074;exitY=-0.006;exitDx=0;exitDy=0;exitPerimeter=0;" edge="1" parent="1" source="1GgPMbV7aMCzvzCdthBu-3" target="1GgPMbV7aMCzvzCdthBu-2">
          <mxGeometry width="50" height="50" relative="1" as="geometry">
            <mxPoint x="240" y="574" as="sourcePoint" />
            <mxPoint x="239" y="482" as="targetPoint" />
          </mxGeometry>
        </mxCell>
        <mxCell id="1GgPMbV7aMCzvzCdthBu-10" value="" style="endArrow=none;dashed=1;html=1;rounded=0;entryX=0.5;entryY=1;entryDx=0;entryDy=0;exitX=0.338;exitY=0;exitDx=0;exitDy=0;exitPerimeter=0;" edge="1" parent="1" source="1GgPMbV7aMCzvzCdthBu-3" target="1GgPMbV7aMCzvzCdthBu-1">
          <mxGeometry width="50" height="50" relative="1" as="geometry">
            <mxPoint x="180" y="404" as="sourcePoint" />
            <mxPoint x="180" y="354" as="targetPoint" />
          </mxGeometry>
        </mxCell>
        <mxCell id="1GgPMbV7aMCzvzCdthBu-11" value="" style="endArrow=none;dashed=1;html=1;rounded=0;entryX=0.5;entryY=1;entryDx=0;entryDy=0;exitX=0.596;exitY=0.009;exitDx=0;exitDy=0;exitPerimeter=0;" edge="1" parent="1" source="1GgPMbV7aMCzvzCdthBu-3" target="1GgPMbV7aMCzvzCdthBu-4">
          <mxGeometry width="50" height="50" relative="1" as="geometry">
            <mxPoint x="190" y="414" as="sourcePoint" />
            <mxPoint x="190" y="364" as="targetPoint" />
          </mxGeometry>
        </mxCell>
        <mxCell id="1GgPMbV7aMCzvzCdthBu-12" value="" style="endArrow=none;dashed=1;html=1;rounded=0;entryX=0.5;entryY=1;entryDx=0;entryDy=0;exitX=0.85;exitY=-0.009;exitDx=0;exitDy=0;exitPerimeter=0;" edge="1" parent="1" source="1GgPMbV7aMCzvzCdthBu-3" target="1GgPMbV7aMCzvzCdthBu-5">
          <mxGeometry width="50" height="50" relative="1" as="geometry">
            <mxPoint x="457" y="402" as="sourcePoint" />
            <mxPoint x="456" y="354" as="targetPoint" />
          </mxGeometry>
        </mxCell>
        <mxCell id="1GgPMbV7aMCzvzCdthBu-13" value="" style="endArrow=none;dashed=1;html=1;rounded=0;entryX=0.5;entryY=0;entryDx=0;entryDy=0;exitX=0.702;exitY=1;exitDx=0;exitDy=0;exitPerimeter=0;" edge="1" parent="1" source="1GgPMbV7aMCzvzCdthBu-3" target="1GgPMbV7aMCzvzCdthBu-7">
          <mxGeometry width="50" height="50" relative="1" as="geometry">
            <mxPoint x="594" y="404" as="sourcePoint" />
            <mxPoint x="593" y="354" as="targetPoint" />
          </mxGeometry>
        </mxCell>
        <mxCell id="1GgPMbV7aMCzvzCdthBu-14" value="&lt;div&gt;&lt;span style=&quot;font-size:14.0pt;line-height:107%;&lt;br/&gt;font-family:&amp;quot;Times New Roman&amp;quot;,serif;mso-fareast-font-family:Calibri;mso-fareast-theme-font:&lt;br/&gt;minor-latin;mso-ansi-language:RU;mso-fareast-language:EN-US;mso-bidi-language:&lt;br/&gt;AR-SA&quot;&gt;Raspberry Pi&lt;/span&gt;&lt;br&gt;&lt;/div&gt;" style="rounded=0;whiteSpace=wrap;html=1;" vertex="1" parent="1">
          <mxGeometry x="810" y="370" width="170" height="121" as="geometry" />
        </mxCell>
        <mxCell id="1GgPMbV7aMCzvzCdthBu-15" value="" style="endArrow=none;html=1;rounded=0;entryX=0;entryY=0.5;entryDx=0;entryDy=0;" edge="1" parent="1" target="1GgPMbV7aMCzvzCdthBu-14">
          <mxGeometry width="50" height="50" relative="1" as="geometry">
            <mxPoint x="730" y="431" as="sourcePoint" />
            <mxPoint x="610" y="370" as="targetPoint" />
          </mxGeometry>
        </mxCell>
        <mxCell id="1GgPMbV7aMCzvzCdthBu-16" value="&lt;span style=&quot;font-size:14.0pt;line-height:107%;&lt;br/&gt;font-family:&amp;quot;Times New Roman&amp;quot;,serif;mso-fareast-font-family:Calibri;mso-fareast-theme-font:&lt;br/&gt;minor-latin;mso-ansi-language:RU;mso-fareast-language:EN-US;mso-bidi-language:&lt;br/&gt;AR-SA&quot;&gt;Счетчик воды&lt;/span&gt;" style="rounded=0;whiteSpace=wrap;html=1;" vertex="1" parent="1">
          <mxGeometry x="436" y="850" width="193" height="80" as="geometry" />
        </mxCell>
        <mxCell id="1GgPMbV7aMCzvzCdthBu-17" value="&lt;span style=&quot;font-size:14.0pt;line-height:107%;&lt;br/&gt;font-family:&amp;quot;Times New Roman&amp;quot;,serif;mso-fareast-font-family:Calibri;mso-fareast-theme-font:&lt;br/&gt;minor-latin;mso-ansi-language:RU;mso-fareast-language:EN-US;mso-bidi-language:&lt;br/&gt;AR-SA&quot;&gt;Arduino&lt;/span&gt;" style="rounded=0;whiteSpace=wrap;html=1;" vertex="1" parent="1">
          <mxGeometry x="436" y="967" width="193" height="80" as="geometry" />
        </mxCell>
        <mxCell id="1GgPMbV7aMCzvzCdthBu-18" value="&lt;span style=&quot;font-size:14.0pt;line-height:107%;&lt;br/&gt;font-family:&amp;quot;Times New Roman&amp;quot;,serif;mso-fareast-font-family:Calibri;mso-fareast-theme-font:&lt;br/&gt;minor-latin;mso-ansi-language:RU;mso-fareast-language:EN-US;mso-bidi-language:&lt;br/&gt;AR-SA&quot;&gt;Raspberry Pi&lt;/span&gt;" style="rounded=0;whiteSpace=wrap;html=1;" vertex="1" parent="1">
          <mxGeometry x="436" y="1085" width="193" height="80" as="geometry" />
        </mxCell>
        <mxCell id="1GgPMbV7aMCzvzCdthBu-19" value="&lt;span style=&quot;font-size:14.0pt;line-height:107%;&lt;br/&gt;font-family:&amp;quot;Times New Roman&amp;quot;,serif;mso-fareast-font-family:Calibri;mso-fareast-theme-font:&lt;br/&gt;minor-latin;mso-ansi-language:RU;mso-fareast-language:EN-US;mso-bidi-language:&lt;br/&gt;AR-SA&quot;&gt;Облачный сервер&lt;/span&gt;" style="rounded=0;whiteSpace=wrap;html=1;" vertex="1" parent="1">
          <mxGeometry x="436" y="1203" width="193" height="80" as="geometry" />
        </mxCell>
        <mxCell id="1GgPMbV7aMCzvzCdthBu-20" value="&lt;span style=&quot;font-size:14.0pt;line-height:107%;&lt;br/&gt;font-family:&amp;quot;Times New Roman&amp;quot;,serif;mso-fareast-font-family:Calibri;mso-fareast-theme-font:&lt;br/&gt;minor-latin;mso-ansi-language:RU;mso-fareast-language:EN-US;mso-bidi-language:&lt;br/&gt;AR-SA&quot;&gt;Мобильное приложение&lt;/span&gt;" style="rounded=0;whiteSpace=wrap;html=1;" vertex="1" parent="1">
          <mxGeometry x="436" y="1321" width="193" height="80" as="geometry" />
        </mxCell>
        <mxCell id="1GgPMbV7aMCzvzCdthBu-21" value="" style="endArrow=none;html=1;rounded=0;entryX=0.5;entryY=1;entryDx=0;entryDy=0;exitX=0.5;exitY=0;exitDx=0;exitDy=0;" edge="1" parent="1" source="1GgPMbV7aMCzvzCdthBu-17" target="1GgPMbV7aMCzvzCdthBu-16">
          <mxGeometry width="50" height="50" relative="1" as="geometry">
            <mxPoint x="574" y="1148" as="sourcePoint" />
            <mxPoint x="624" y="1098" as="targetPoint" />
          </mxGeometry>
        </mxCell>
        <mxCell id="1GgPMbV7aMCzvzCdthBu-22" value="" style="endArrow=none;html=1;rounded=0;exitX=0.5;exitY=0;exitDx=0;exitDy=0;entryX=0.5;entryY=1;entryDx=0;entryDy=0;" edge="1" parent="1" source="1GgPMbV7aMCzvzCdthBu-20" target="1GgPMbV7aMCzvzCdthBu-19">
          <mxGeometry width="50" height="50" relative="1" as="geometry">
            <mxPoint x="574" y="1148" as="sourcePoint" />
            <mxPoint x="624" y="1098" as="targetPoint" />
          </mxGeometry>
        </mxCell>
        <mxCell id="1GgPMbV7aMCzvzCdthBu-23" value="" style="endArrow=none;html=1;rounded=0;exitX=0.5;exitY=0;exitDx=0;exitDy=0;entryX=0.5;entryY=1;entryDx=0;entryDy=0;" edge="1" parent="1" source="1GgPMbV7aMCzvzCdthBu-19" target="1GgPMbV7aMCzvzCdthBu-18">
          <mxGeometry width="50" height="50" relative="1" as="geometry">
            <mxPoint x="574" y="1148" as="sourcePoint" />
            <mxPoint x="624" y="1098" as="targetPoint" />
          </mxGeometry>
        </mxCell>
        <mxCell id="1GgPMbV7aMCzvzCdthBu-24" value="" style="endArrow=none;html=1;rounded=0;entryX=0.5;entryY=1;entryDx=0;entryDy=0;exitX=0.5;exitY=0;exitDx=0;exitDy=0;" edge="1" parent="1" source="1GgPMbV7aMCzvzCdthBu-18" target="1GgPMbV7aMCzvzCdthBu-17">
          <mxGeometry width="50" height="50" relative="1" as="geometry">
            <mxPoint x="540" y="1072" as="sourcePoint" />
            <mxPoint x="528" y="1054" as="targetPoint" />
          </mxGeometry>
        </mxCell>
      </root>
    </mxGraphModel>
  </diagram>
</mxfile>
